<svg xmlns="http://www.w3.org/2000/svg" width="110.667" height="110.667" viewBox="0 0 110.667 110.667">
  <g id="target" transform="translate(0 -0.002)">
    <path id="Path_179" data-name="Path 179" d="M96.328,26.765A3.923,3.923,0,0,0,99.1,25.616l10.865-10.865a2.39,2.39,0,0,0-1.539-4.072l-5.782-.363,3.773-3.773a1.621,1.621,0,0,0-2.293-2.292l-3.773,3.773L99.99,2.241A2.39,2.39,0,0,0,95.918.7L85.052,11.567a3.923,3.923,0,0,0-1.141,3.019l.374,5.95A51.157,51.157,0,0,0,13.3,93.93a1.621,1.621,0,0,0,2.4-2.182A47.931,47.931,0,0,1,83.89,24.486l-7.4,7.4A37.511,37.511,0,0,0,17.771,76.677h0A37.534,37.534,0,0,0,87.9,67.151a1.621,1.621,0,1,0-3.175-.658,34.292,34.292,0,0,1-64.078,8.7h0a33.845,33.845,0,0,1-3.8-15.671A34.258,34.258,0,0,1,74.2,34.174L66.87,41.505A23.949,23.949,0,1,0,69.163,43.8l7.331-7.331a34.145,34.145,0,0,1,8.947,22.853,1.621,1.621,0,0,0,1.621,1.612h.01a1.621,1.621,0,0,0,1.612-1.63,37.379,37.379,0,0,0-9.9-25.127l7.4-7.4A47.932,47.932,0,0,1,21.019,96.767a1.621,1.621,0,0,0-2.041,2.519A51.151,51.151,0,0,0,102.3,59.519,50.735,50.735,0,0,0,92.239,29.053q-1.022-1.376-2.124-2.671c6.355.4,6.012.383,6.213.383Zm-24.5,32.755A20.7,20.7,0,1,1,64.572,43.8L57.2,51.181a10.321,10.321,0,1,0,2.293,2.293L66.865,46.1A20.589,20.589,0,0,1,71.828,59.519ZM50,60.666a1.621,1.621,0,0,0,2.293,0l4.859-4.859a7.072,7.072,0,1,1-2.293-2.293L50,58.373a1.621,1.621,0,0,0,0,2.292ZM87.148,14.383a.679.679,0,0,1,.2-.523l9.527-9.527L97.3,11.08l-9.744,9.744Zm2.7,8.734,9.744-9.744,6.747.423-9.527,9.527a.677.677,0,0,1-.523.2Z" transform="translate(0 0)" fill="#558cb3"/>
  </g>
</svg>
