<?xml version="1.0" encoding="utf-8"?>
<!-- Generator: Adobe Illustrator 24.1.1, SVG Export Plug-In . SVG Version: 6.00 Build 0)  -->
<svg version="1.1" id="Layer_1" xmlns="http://www.w3.org/2000/svg" xmlns:xlink="http://www.w3.org/1999/xlink" x="0px" y="0px"
	 viewBox="0 0 983 983" style="enable-background:new 0 0 983 983;" xml:space="preserve">
<style type="text/css">
	.st0{fill:none;stroke:#A6A8AB;stroke-width:16;stroke-linecap:round;stroke-miterlimit:10;}
	.st1{fill:none;stroke:#4472b8;stroke-width:16;stroke-linecap:round;stroke-miterlimit:10;}
</style>
<path class="st0" d="M491.5,761c114.7-45.3,193.6-84.2,193.6-154.6h-0.3l0.3-303.2c0-3-1.8-5.6-4.5-6.8l-186.2-74.3
	c-1.8-0.8-3.8-0.8-5.6,0l-186.2,74.3c-2.7,1.1-4.5,3.8-4.5,6.8v303.2C297.9,676.8,376.8,715.7,491.5,761z"/>
<path class="st0" d="M491.5,710.4c93.2-36.8,150.9-68.4,150.9-125.6h-0.2l0.2-246.3c0-2.4-1.4-4.6-3.7-5.5l-144.9-60.4
	c-1.5-0.6-3.1-0.6-4.6,0L344.3,333c-2.2,0.9-3.7,3.1-3.7,5.5v246.3C340.6,641.9,398.3,673.6,491.5,710.4z"/>
<path class="st1" d="M554.2,459.7l-73.8,68c-3.5,3.2-8.9,3.1-12.3-0.3L422.6,482"/>
<line class="st1" x1="585.1" y1="428.9" x2="572.5" y2="440.4"/>
</svg>
