<svg xmlns="http://www.w3.org/2000/svg" viewBox="0 0 96.067 99.305">
  <defs/>
  <path fill="#558cb3" d="M63.479 22.662a15.321 15.321 0 000 30.642 15.321 15.321 0 100-30.642zm0 27.732A12.412 12.412 0 1175.89 37.983a12.39 12.39 0 01-12.411 12.411z" data-name="Path 159"/>
  <path fill="#558cb3" d="M94.326 60.431l-3.017-3.017a1.455 1.455 0 10-2.055 2.057l3.017 3.017a3.02924545 3.02924545 0 01-4.284 4.284L76.278 55.065a21.614 21.614 0 004.286-4.282l3.89 3.888a1.455 1.455 0 102.057-2.057l-4.327-4.327a21.393 21.393 0 00-.981-22.212v-13a4.563 4.563 0 00-4.559-4.56H72.97V4.558A4.563 4.563 0 0068.412 0H27.87a1.455 1.455 0 100 2.909h40.542a1.65 1.65 0 011.649 1.649v3.957H12.789a4.563 4.563 0 00-4.558 4.558V87.88H4.554a1.65 1.65 0 01-1.649-1.649V4.558a1.65 1.65 0 011.649-1.649h16.528a1.455 1.455 0 100-2.909H4.554A4.563 4.563 0 000 4.558v81.673a4.563 4.563 0 004.554 4.558h3.673v3.957a4.563 4.563 0 004.562 4.554h63.855a4.563 4.563 0 004.558-4.558V64.1l4.726 4.726a5.93969696 5.93969696 0 108.4-8.4zm-43.236-8.8a18.433 18.433 0 1130.825-13.648c0 15.742-18.924 24.48-30.825 13.651zm27.2 43.112a1.65 1.65 0 01-1.646 1.657H12.789a1.65 1.65 0 01-1.649-1.649V13.073a1.65 1.65 0 011.649-1.649h63.855a1.65 1.65 0 011.649 1.649v9.54a21.211 21.211 0 00-14.813-5.976c-18.42 0-28.209 21.959-15.849 35.644a21.356 21.356 0 0026.149 4.4l4.514 4.514v33.552z" data-name="Path 160"/>
  <path fill="#558cb3" d="M18.479 23.352h18.006a1.455 1.455 0 000-2.909H18.479a1.455 1.455 0 000 2.909z" data-name="Path 161"/>
  <path fill="#558cb3" d="M18.479 31.599h18.006a1.455 1.455 0 000-2.909H18.479a1.455 1.455 0 100 2.909z" data-name="Path 162"/>
  <path fill="#558cb3" d="M18.479 39.846h18.006a1.455 1.455 0 000-2.909H18.479a1.455 1.455 0 100 2.909z" data-name="Path 163"/>
  <path fill="#558cb3" d="M18.479 48.643h18.006a1.455 1.455 0 000-2.909H18.479a1.455 1.455 0 100 2.909z" data-name="Path 164"/>
  <path fill="#558cb3" d="M61.994 89.362H46.649L44.9 85.411a16.6 16.6 0 004.012-18.871h14.017a1.455 1.455 0 100-2.909H47.277a16.636 16.636 0 10-4.754 23.6l1.849 4.178a1.454 1.454 0 001.33.866h16.292a1.455 1.455 0 000-2.91zm-29.791-16.2V86.81a13.724 13.724 0 1111.314-23.181h-2.27a1.455 1.455 0 000 2.909h4.424a13.616 13.616 0 011.634 5.169H33.658a1.455 1.455 0 00-1.452 1.457zm2.909 13.648V74.618h12.194a13.682 13.682 0 01-3.664 7.95l-1.064-2.4a1.455 1.455 0 10-2.66 1.178l1.413 3.192a13.639 13.639 0 01-6.218 2.274z" data-name="Path 165"/>
  <path fill="#558cb3" d="M72.209 71.709h-9.28a1.455 1.455 0 000 2.909h9.28a1.455 1.455 0 000-2.909z" data-name="Path 166"/>
  <path fill="#558cb3" d="M72.209 78.856h-9.28a1.455 1.455 0 000 2.909h9.28a1.455 1.455 0 000-2.909z" data-name="Path 167"/>
  <path fill="#558cb3" d="M68.505 32.39l-8.013 7.712-1.742-3.521a1.455 1.455 0 00-2.608 1.29l2.623 5.3a1.455 1.455 0 002.312.4l9.445-9.089a1.45587508 1.45587508 0 10-2.017-2.1z" data-name="Path 168"/>
</svg>
