<svg xmlns="http://www.w3.org/2000/svg" width="46.774" height="59.536" viewBox="0 0 46.774 59.536"><g transform="translate(-47.037 0)"><g transform="translate(47.037 0)"><g transform="translate(0)"><path d="M87.858,7.8H82.472V5.391c0-.78-.85-1.134-1.63-1.134H76.661A6.339,6.339,0,0,0,70.353,0a6.449,6.449,0,0,0-6.307,4.252h-4.11c-.78,0-1.559.354-1.559,1.134V7.8H52.99a6.024,6.024,0,0,0-5.953,5.74V54.15c0,3.118,2.835,5.386,5.953,5.386H87.858c3.118,0,5.953-2.268,5.953-5.386V13.541A6.024,6.024,0,0,0,87.858,7.8ZM61.211,7.092h3.9a1.559,1.559,0,0,0,1.347-1.276,4.11,4.11,0,0,1,3.9-3.189A4.039,4.039,0,0,1,74.18,5.816,1.559,1.559,0,0,0,75.6,7.092h4.04v5.67H61.211ZM90.977,54.15c0,1.559-1.559,2.551-3.118,2.551H52.99c-1.559,0-3.118-.992-3.118-2.551V13.541a3.189,3.189,0,0,1,3.118-2.906h5.386V14.25A1.488,1.488,0,0,0,59.935,15.6H80.842a1.559,1.559,0,0,0,1.63-1.347V10.635h5.386a3.189,3.189,0,0,1,3.118,2.906V54.15Z" transform="translate(-47.037 0)" fill="#eab844"/><path d="M110.211,230.753a1.417,1.417,0,0,0-1.984-.071l-4.536,4.323-1.913-1.984a1.417,1.417,0,0,0-1.984-.071,1.488,1.488,0,0,0,0,2.055l2.906,2.977a1.276,1.276,0,0,0,.992.425,1.417,1.417,0,0,0,.992-.425l5.528-5.244a1.346,1.346,0,0,0,.082-1.9C110.266,230.807,110.239,230.779,110.211,230.753Z" transform="translate(-92.28 -199.07)" fill="#eab844"/><path d="M216.265,256.034h-16.3a1.417,1.417,0,1,0,0,2.835h16.3a1.417,1.417,0,1,0,0-2.835Z" transform="translate(-177.995 -221.303)" fill="#eab844"/><path d="M110.211,147.161a1.417,1.417,0,0,0-1.984-.071l-4.536,4.323-1.913-1.984a1.417,1.417,0,0,0-1.984-.071,1.488,1.488,0,0,0,0,2.055l2.906,2.977a1.276,1.276,0,0,0,.992.425,1.417,1.417,0,0,0,.992-.425l5.528-5.244a1.346,1.346,0,0,0,.082-1.9C110.266,147.215,110.239,147.187,110.211,147.161Z" transform="translate(-92.28 -126.817)" fill="#eab844"/><path d="M216.265,172.442h-16.3a1.417,1.417,0,1,0,0,2.835h16.3a1.417,1.417,0,1,0,0-2.835Z" transform="translate(-177.995 -149.05)" fill="#eab844"/><path d="M110.211,314.345a1.418,1.418,0,0,0-1.984-.071L103.69,318.6l-1.913-1.984a1.418,1.418,0,0,0-1.984-.071,1.488,1.488,0,0,0,0,2.055l2.906,2.977a1.276,1.276,0,0,0,.992.425,1.417,1.417,0,0,0,.992-.425l5.528-5.244a1.346,1.346,0,0,0,.082-1.9C110.266,314.4,110.239,314.371,110.211,314.345Z" transform="translate(-92.28 -271.322)" fill="#eab844"/><path d="M216.265,339.626h-16.3a1.417,1.417,0,1,0,0,2.835h16.3a1.417,1.417,0,1,0,0-2.835Z" transform="translate(-177.995 -293.556)" fill="#eab844"/></g></g></g></svg>