<?xml version="1.0" encoding="utf-8"?>
<!-- Generator: Adobe Illustrator 24.1.1, SVG Export Plug-In . SVG Version: 6.00 Build 0)  -->
<svg version="1.1" id="Layer_1" xmlns="http://www.w3.org/2000/svg" xmlns:xlink="http://www.w3.org/1999/xlink" x="0px" y="0px"
	 viewBox="0 0 983 983" style="enable-background:new 0 0 983 983;" xml:space="preserve">
<style type="text/css">
	.st0{fill:none;stroke:#A6A8AB;stroke-width:16;stroke-linecap:round;stroke-miterlimit:10;}
	.st1{fill:none;stroke:#4472b8;stroke-width:16;stroke-linecap:round;stroke-miterlimit:10;}
</style>
<path class="st1" d="M249.2,523.6c0,32.2,26.1,58.2,58.2,58.2"/>
<circle class="st0" cx="317.9" cy="517.4" r="138.6"/>
<circle class="st0" cx="664.4" cy="517.4" r="138.6"/>
<circle class="st0" cx="660.7" cy="517.4" r="100.4"/>
<circle class="st0" cx="314.2" cy="517.4" r="100.4"/>
<g>
	<line class="st0" x1="408.7" y1="622.1" x2="573.6" y2="622.1"/>
</g>
<path class="st0" d="M660.7,378.8c-138.6-69.3-207.9-69.3-346.5,0"/>
<path class="st0" d="M573.6,622.1L573.6,622.1c24.3,21.1,56.1,33.9,90.8,33.9c76.5,0,138.6-62.1,138.6-138.6
	s-62.1-138.6-138.6-138.6c-138.6-69.3-211.6-69.3-350.2,0"/>
<path class="st0" d="M314.2,378.8c-74.8,2-134.9,63.2-134.9,138.6c0,76.5,62.1,138.6,138.6,138.6c34.7,0,66.5-12.8,90.8-33.9"/>
<path class="st1" d="M333.6,579.9c9.1,0,14.6-2.6,21.8-7.1"/>
<path class="st0" d="M408.7,622.1l164.9,0"/>
</svg>
