<svg xmlns="http://www.w3.org/2000/svg" width="74.247" height="100.301" viewBox="0 0 74.247 100.301">
  <g id="فرابورس" transform="translate(0.342 0.09)">
    <path id="Path_180" data-name="Path 180" d="M903.489,685.148c-.258.023-.9,1.736-1,2-.875,2.209-1.987,4.635-1,7,.74,1.769,1.856,3.189,4,3,2.648-.236,4.949-2.654,6-4a14.829,14.829,0,0,0,3-7c.188-1.245.09-1,2-1,1.36,0,2.686.349,4,0a27.339,27.339,0,0,0,10-5c.2-.15.821-.835,1-1l1-1c.936-1.006,3.491-2.061,4-3v-1c-.552-.15-1.663.74-2,1l-1,1c-.172.15-.8-.154-1,0s-.8.839-1,1a24.766,24.766,0,0,1-11,5,10.569,10.569,0,0,1-5,0c-.615-.141-1.664-.456-2,0-.54.75.024,2.945,0,4-.04,1.622-.039,2.692-1,4a10.282,10.282,0,0,1-4,3c-3,1.2-6.977-.453-6-5,.12-.52-.2-.5,0-1,.095-.258-.094-.742,0-1S903.614,685.409,903.489,685.148Z" transform="translate(-875.831 -599.238)" fill="#ededed" fill-rule="evenodd"/>
    <path id="Path_181" data-name="Path 181" d="M732.568,731.181a5.083,5.083,0,0,0,5,5c2.2.056,3.557-1.7,5-3a13.887,13.887,0,0,0,2-3,13.1,13.1,0,0,0,2-6c.037-.417.021-3.758,0-4a7.348,7.348,0,0,0,0-1c-.3.016.1.75,0,1-.129.321-.874.668-1,1a8.78,8.78,0,0,0,0,3,5.757,5.757,0,0,1-1,4c-2.584,4.521-9.049,5.474-10,2a9.513,9.513,0,0,1,0-5c.088-.205.964-.846,1-1,.072-.3.146-.165,0,0a33,33,0,0,0-2,3A9.54,9.54,0,0,0,732.568,731.181Z" transform="translate(-732.91 -638.271)" fill="#ededed" fill-rule="evenodd"/>
    <path id="Path_182" data-name="Path 182" d="M1157.865,717.423c-.792.224-2.3,3.305-2,4,.144.324.662-.107,1,0a1.205,1.205,0,0,0,1,0,1.485,1.485,0,0,1,1,0,.533.533,0,0,1,0,1c-.823.491-2.029.332-3,1-2.059,1.415-2.13,2.969-3,4a41.071,41.071,0,0,1-4,4c-.088.055.071-.076,0,0s0-.127,0,0c0,.335.6.359,2,0,1.041-.27,1.494-.386,2-1,1.322-1.6,1.088-4.037,3-5a11.882,11.882,0,0,0,2-1c.878-.644,1.564-1,2-2a4.7,4.7,0,0,0,0-3c-.114-.433.282-.654,0-1C1159.7,718.2,1158.369,717.28,1157.865,717.423Z" transform="translate(-1086.207 -636.512)" fill="#ededed" fill-rule="evenodd"/>
    <path id="Path_183" data-name="Path 183" d="M1088.8,727.333c-.186-.932-.358-1.647-1-2-.965-.525-1.622.178-2,1a9.979,9.979,0,0,0,0,3c.007.066-.019-.063,0,0,.333,1,1.513.216,2,0-.021.6-1.521,1.619-2,2s-.474.652-1,1c-.185.123-.85.877-1,1-.384.337.584.081,1,0,.332-.066.679.108,1,0,1.452-.492,1.236-.7,2-2,.149-.259.883-.726,1-1,.336-.8.319-.37,1-1,.214-.2-.2-.789,0-1,1.745-1.874,1.756-3.536,2-6,.018-.182.329-1.256,0-1a15.642,15.642,0,0,0-1,2c-.45,1.037.19,3.1-1,4C1089.64,727.455,1088.948,727.275,1088.8,727.333Z" transform="translate(-1031.141 -639.423)" fill="#ededed" fill-rule="evenodd"/>
    <path id="Path_184" data-name="Path 184" d="M842.374,742.052c-.391-.072.21.469,0,1-.1.3-.788-.232-1,0-.827.9-1.945,1.377-3,4-.66,1.641-1.663,2.013-3,3-.485.357-.5.643-1,1-.252.18-.742.826-1,1-.139.09-1.306-.255-1,0a12.322,12.322,0,0,0,3,0c3.507-.912,2.245-2.953,5-5,1.164-.863,1.235-1.163,2-3A4.153,4.153,0,0,0,842.374,742.052Z" transform="translate(-817.716 -657.142)" fill="#ededed" fill-rule="evenodd"/>
    <path id="Path_185" data-name="Path 185" d="M849.531,818.1a10.694,10.694,0,0,0-2-2c-.272-.161.173-.212,0,0-.237.291-.763.683-1,1s-.789.658-1,1a1.189,1.189,0,0,0,0,1l1,1c.411.409.49.393,1,0,.341-.257.712-1.64,1-2,.15.139.866.873,1,1,.471.461.43,1.369,1,1,.38-.246,1.91-1.326,2-2,.093-.714-1.511-1.96-2-2C850.21,816.072,849.907,817.748,849.531,818.1Z" transform="translate(-828.873 -720.187)" fill="#ededed" fill-rule="evenodd"/>
    <path id="Path_186" data-name="Path 186" d="M838.753,707.72c.231-.043.885-1.772,1-2a9.209,9.209,0,0,0,1-4c.183-1.739.779-4.273,1-6,.092-.71-.054-.259,0-1-.207.031.084-.182,0,0-.287.623-.778,1.368-1,2a14.762,14.762,0,0,0-1,4,58,58,0,0,1-1,6c-.013.059.011-.056,0,0-.006.03,0-.031,0,0A3.49,3.49,0,0,0,838.753,707.72Z" transform="translate(-823.095 -616.81)" fill="#ededed" fill-rule="evenodd"/>
    <path id="Path_187" data-name="Path 187" d="M925.96,707.678c.15,0,.927-.878,1-1,.132-.219-.118-.767,0-1a9.48,9.48,0,0,0,1-4c.183-1.748.782-4.258,1-6a5.96,5.96,0,0,0,0-1c-.321.136-.842,1.575-1,2a16.36,16.36,0,0,0-1,4c-.141,1.6.291,4.454,0,6C926.921,706.885,925.841,707.544,925.96,707.678Z" transform="translate(-897.302 -616.767)" fill="#ededed" fill-rule="evenodd"/>
    <path id="Path_188" data-name="Path 188" d="M1152.084,707.678c.2-.013.923-1.844,1-2a9.2,9.2,0,0,0,1-4c.183-1.745.784-4.261,1-6,.1-.771-.05-.193,0-1-.2.073.1-.216,0,0-1.083,2.292-1.77,3.316-2,6-.13,1.529-.715,4.508-1,6C1152.045,706.883,1151.964,707.544,1152.084,707.678Z" transform="translate(-1089.426 -616.768)" fill="#ededed" fill-rule="evenodd"/>
    <path id="Path_189" data-name="Path 189" d="M1047.373,751.087a3.845,3.845,0,0,0-1,1,19.114,19.114,0,0,1-2,4,10.9,10.9,0,0,1-2,2c-.483.363-.649.726-1,1-.167.131-.43-.027,0,0,.83.061,2.463.38,3,0,1.284-.9,1.493-3.474,2-5,.15-.45.864-.518,1-1C1047.417,752.937,1047.811,750.827,1047.373,751.087Z" transform="translate(-994.715 -665.177)" fill="#ededed" fill-rule="evenodd"/>
    <path id="Path_190" data-name="Path 190" d="M771.985,749.393a6.628,6.628,0,0,0-2,2,1.179,1.179,0,0,0,0,1c.269.323.676-.354,1,0,.075.081.823.979,1,1,.507.062.906-1.388,1-2C773.135,750.446,772.461,749.229,771.985,749.393Z" transform="translate(-764.326 -663.482)" fill="#ededed" fill-rule="evenodd"/>
    <path id="Path_191" data-name="Path 191" d="M1105.082,814.414a11.843,11.843,0,0,0-2,2c-.283.515-.523.493,0,1,.812.8,1.2.87,2,0,.32-.347.92-.413,1-1C1106.207,815.491,1105.564,814.18,1105.082,814.414Z" transform="translate(-1047.424 -718.503)" fill="#ededed" fill-rule="evenodd"/>
    <path id="Path_192" data-name="Path 192" d="M1203.274,681.27c-.3.128-.77,1.553-1,2-.3.579-.45.543,0,1,.15.15.787.008,1,0,.4-.014,1.93-.334,2-1C1205.376,682.306,1203.706,681.079,1203.274,681.27Z" transform="translate(-1131.615 -605.359)" fill="#ededed" fill-rule="evenodd"/>
    <path id="Path_193" data-name="Path 193" d="M779.165,241.78a4,4,0,1,1,4-4A4.083,4.083,0,0,1,779.165,241.78Zm9,6h-17a2.771,2.771,0,0,1-2-2v-7a1.982,1.982,0,0,1,2-2h3c-.019.173,0,.826,0,1a4.736,4.736,0,0,0,5,5c3.082,0,6-2.107,6-5,0-.174.018-.827,0-1h3c1.04,0,1,.894,1,2v7C789.159,246.518,788.9,247.775,788.165,247.78Zm-29-15a3.536,3.536,0,1,1,5,0A3.312,3.312,0,0,1,759.165,232.78Zm1,10-12-12a1.481,1.481,0,0,1,0-2l6-5c.788-.788.206-.794,1,0l3,2c-.135.109-.877.877-1,1a4.657,4.657,0,0,0,0,7,5.839,5.839,0,0,0,8,0c.123-.124-.108.134,0,0l3,2c.735.735.782,1.218,0,2l-6,5A1.472,1.472,0,0,1,760.165,242.78Zm40-10a3.313,3.313,0,0,0,0-5,4.521,4.521,0,0,0-6,0,3.313,3.313,0,0,0,0,5A4.524,4.524,0,0,0,800.165,232.78Zm-2,10,12-12a1.482,1.482,0,0,0,0-2l-5-5c-.788-.788-1.206-.794-2,0l-2,2c.135.109-.123.877,0,1a4.657,4.657,0,0,1,0,7,5.839,5.839,0,0,1-8,0c-.123-.124.108.134,0,0l-2,2c-.735.735-.782,1.218,0,2l5,5A1.472,1.472,0,0,0,798.165,242.78Zm-23-17c.171-.644-.151-1.619,0-2a20.267,20.267,0,0,1,4-6,18.825,18.825,0,0,1,4,6,10.023,10.023,0,0,1,1,2c.087.53-.038.522,0,0,.072-.687.749-2.1,1-3a19.808,19.808,0,0,1,4-8,22.767,22.767,0,0,1,7-5c1.247-.59.982-.556,2-1,.214-.132.34-.96,0-1a24.922,24.922,0,0,0-6,1,26.337,26.337,0,0,0-5,2c-3.712,2.089-5.185,4.219-8,7a8.646,8.646,0,0,1-1-1c-.3-.3.334-.706,0-1a38.851,38.851,0,0,0-7-5,28.91,28.91,0,0,0-5-2,13.628,13.628,0,0,0-5-1c-.351-.015-.25.884,0,1,.714.329,1.473.734,2,1,5.183,2.624,9.687,7.23,11,13,.132.565-.069,1.424,0,2a6.218,6.218,0,0,1,0,1C774.165,226.187,775.049,226.23,775.165,225.78Zm4-7a15.758,15.758,0,0,0-2,3c-1.291,2.113-2.381,5.737-1,8,2.464,4.038,11.393,1.479,6-8A18.91,18.91,0,0,0,779.165,218.78Zm-5-7a39.31,39.31,0,0,1,5,4,52.2,52.2,0,0,1,6-4C783.646,207.633,776.414,206.683,774.165,211.78Zm21-9c-3.546.42-7.616,3.674-10,6-1.376,1.337,1.338,1.114,2,1,2.806-.486,8.783-2.26,10-5C797.915,203.092,796.764,202.59,795.165,202.78Zm-9-9c-2.91,1.125-4.735,7.808-5,11a12.153,12.153,0,0,0,0,2c.15,1.038,1.869-.851,2-1,1.706-1.927,4.751-6.039,5-9C788.282,195.371,787.824,193.14,786.165,193.78Zm-7-1c-1.017.243-1.808,1.869-2,3-.387,2.278.391,5.776,1,8,.03.113-.031-.108,0,0a24.728,24.728,0,0,0,1,3,.679.679,0,0,0,1,0,38.381,38.381,0,0,0,1-4,18.8,18.8,0,0,0,0-8C780.9,193.766,780.455,192.471,779.165,192.78Zm13,5c-3.355.5-7.807,6.847-9,10-.474,1.257,1.574.237,2,0a30.913,30.913,0,0,0,6-5c.774-.75,1.446-.75,2-2C793.748,199.461,794.066,197.5,792.165,197.78Zm-25,0c-1.634.309-1.607,1.924-1,3,1.567,2.788,6.244,5.492,9,7,.687.377.228.708,0,0a49.65,49.65,0,0,0-3-6C771.312,200.517,769.456,197.348,767.165,197.78Zm10,9c.567-.213-.177-9.649-2-12-3.016-3.892-6.587.851,0,10C775.513,205.263,776.731,206.924,777.165,206.78Zm-3,2a40.76,40.76,0,0,0-5-4c-6.578-4.611-9.251-1.955-6,1,2,1.814,7.649,3.776,10,4C774.025,209.861,774.75,209.372,774.165,208.78Zm5-26a4,4,0,1,0,4,4A4.082,4.082,0,0,0,779.165,182.78Zm9-6h-17c-.738.006-2,.262-2,1v8c0,1.113.878,1,2,1h3c-.016-.171,0,.176,0,0,0-2.893,1.918-6,5-6a6.472,6.472,0,0,1,6,6c0,.174.018-.173,0,0h3c1.04,0,1,.1,1-1v-8C789.16,177.042,788.9,176.786,788.165,176.78Zm-38,35a4,4,0,1,0,4-4A4.083,4.083,0,0,0,750.165,211.78Zm-6-8v17c.005.738.262.994,1,1h8c1.114,0,1,.124,1-1v-3c-.173.018.173,0,0,0a6.471,6.471,0,0,1-6-6c0-3.082,3.105-5,6-5,.173,0-.173-.018,0,0v-3c0-1.04.1-2-1-2h-8C744.427,201.786,744.17,203.043,744.165,203.78Zm64,8c0,2.147-.852,4-3,4a4,4,0,0,1,0-8C807.311,207.78,808.163,209.634,808.165,211.78Zm7-8v17c-.006.738-1.262,1-2,1h-7c-1.114,0-2,.124-2-1v-3c.173.018.826,0,1,0,2.893,0,5-2.918,5-6a4.736,4.736,0,0,0-5-5c-.174,0-.827-.018-1,0v-3a2.043,2.043,0,0,1,2-2h7A2.768,2.768,0,0,1,815.165,203.78Zm-56-12a3.536,3.536,0,1,0,5,0A3.315,3.315,0,0,0,759.165,191.78Zm1-11-12,12a1.482,1.482,0,0,0,0,2l6,6c.788.788.206.794,1,0l3-2c-.136-.109-.878-.876-1-1a4.657,4.657,0,0,1,0-7c2.179-2.182,5.952-3.047,8-1,.124.122-.109.865,0,1l3-3c.735-.735.782-.218,0-1l-6-6A1.48,1.48,0,0,0,760.165,180.78Zm40,11a3.314,3.314,0,0,1,0,5,4.523,4.523,0,0,1-6,0,3.315,3.315,0,0,1,0-5A4.52,4.52,0,0,1,800.165,191.78Zm-2-11,12,12a1.471,1.471,0,0,1,0,2l-5,6c-.787.788-1.206.794-2,0l-2-2c.135-.11-.123-.877,0-1a4.656,4.656,0,0,0,0-7c-2.18-2.182-5.95-3.047-8-1-.123.123.109.865,0,1l-2-3c-.736-.735-.782-.218,0-1l5-6A1.482,1.482,0,0,1,798.165,180.78Z" transform="translate(-742.506 -176.87)" fill="#ededed" fill-rule="evenodd"/>
  </g>
</svg>
