<svg xmlns="http://www.w3.org/2000/svg" viewBox="0 0 117.776 117.776">
  <defs/>
  <g fill="#558cb3">
    <path d="M4.88 48.589A5.5 5.5 0 00.306 53.33a50.794 50.794 0 00-.012 11.03 5.532 5.532 0 004.59 4.84l6.246 1.02a48.25 48.25 0 005.993 14.441L13.446 89.8a5.508 5.508 0 00.086 6.652 52.537 52.537 0 003.73 4.1c1.205 1.207 2.538 2.42 4.138 3.765a5.48 5.48 0 006.58.077l5.16-3.7a48.232 48.232 0 0014.427 5.995l1.025 6.256a5.5 5.5 0 004.74 4.576c1.119.126 2.255.214 3.4.261h.168a3.992 3.992 0 002.748-1.1 3.892 3.892 0 001.2-2.823V98.123a3.941 3.941 0 00-3.771-3.916 35.362 35.362 0 010-70.627 3.944 3.944 0 003.771-3.926V3.931a3.886 3.886 0 00-1.205-2.825 3.865 3.865 0 00-2.9-1.1c-1.142.045-2.275.128-3.437.245a5.474 5.474 0 00-4.711 4.6L47.571 11.1a48.247 48.247 0 00-14.427 6l-5.161-3.7a5.5 5.5 0 00-6.629.106 53.45 53.45 0 00-4.081 3.708 47.469 47.469 0 00-3.765 4.142 5.5 5.5 0 00-.094 6.6l3.7 5.166a48.217 48.217 0 00-5.985 14.439zm9.8 1.1a44.465 44.465 0 016.45-15.542 1.963 1.963 0 00-.045-2.224l-4.477-6.252a1.571 1.571 0 01-.029-1.857 43.254 43.254 0 013.457-3.8 50.342 50.342 0 013.749-3.423 1.57 1.57 0 011.9 0l6.242 4.479a1.963 1.963 0 002.224.041 44.39 44.39 0 0115.533-6.452 1.963 1.963 0 001.541-1.606l1.235-7.559a1.557 1.557 0 011.284-1.333c1.038-.108 2.091-.184 3.178-.228l-.043 15.725a39.284 39.284 0 00.043 78.467l-.022 15.728c-1.054-.043-2.1-.126-3.129-.241a1.541 1.541 0 01-1.3-1.311l-1.237-7.563a1.963 1.963 0 00-1.541-1.606 44.4 44.4 0 01-15.533-6.454 1.963 1.963 0 00-2.224.043l-6.253 4.479a1.543 1.543 0 01-1.828.049c-1.443-1.215-2.693-2.355-3.82-3.48a49.587 49.587 0 01-3.421-3.745 1.592 1.592 0 010-1.908l4.473-6.246a1.963 1.963 0 00.043-2.224 44.445 44.445 0 01-6.45-15.54 1.963 1.963 0 00-1.6-1.541L5.52 65.33a1.59 1.59 0 01-1.321-1.4 46.422 46.422 0 01.011-10.154 1.543 1.543 0 011.31-1.307l7.555-1.237a1.962 1.962 0 001.606-1.548z"/>
    <path d="M111.886 53.003a5.889 5.889 0 00-5.528 3.926H60.85V51.04h31.407a5.889 5.889 0 005.889-5.889V34.976a5.889 5.889 0 10-3.926 0v10.171a1.963 1.963 0 01-1.963 1.963H60.85v-5.884h21.592a1.963 1.963 0 000-3.926H60.85v-3.926h11.78a5.889 5.889 0 005.889-5.889V15.347a5.889 5.889 0 10-3.926 0v12.138a1.963 1.963 0 01-1.963 1.962h-12.3a3.627 3.627 0 00-3.445-1.9 31.407 31.407 0 000 62.687h.23a3.62 3.62 0 003.215-1.9h12.3a1.963 1.963 0 011.963 1.963v12.14a5.889 5.889 0 103.926 0V90.299a5.889 5.889 0 00-5.889-5.889H60.85v-3.926h21.592a1.963 1.963 0 000-3.926H60.85V70.67h31.407a1.963 1.963 0 011.963 1.963v10.176a5.889 5.889 0 103.926 0V72.632a5.889 5.889 0 00-5.889-5.885H60.85v-5.892h45.508a5.879 5.879 0 105.528-7.852zm-15.7-25.518a1.963 1.963 0 11-1.966 1.962 1.963 1.963 0 011.963-1.962zM76.554 7.856a1.963 1.963 0 11-1.963 1.963 1.963 1.963 0 011.963-1.963zm0 102.071a1.963 1.963 0 111.963-1.963 1.963 1.963 0 01-1.963 1.963zm19.629-19.629a1.963 1.963 0 111.963-1.963 1.963 1.963 0 01-1.963 1.963zM31.407 58.892a27.514 27.514 0 0125.518-27.41v54.82a27.514 27.514 0 01-25.518-27.41zm80.479 1.963a1.963 1.963 0 111.963-1.963 1.963 1.963 0 01-1.963 1.963z"/>
  </g>
</svg>
