<svg xmlns="http://www.w3.org/2000/svg" viewBox="0 0 78.7 101.286">
  <defs/>
  <g fill="#558cb3" data-name="Group 32">
    <path d="M66.567 19.388a9.694 9.694 0 10-9.652-9.694 9.681 9.681 0 009.652 9.694zm0-14.374a4.7 4.7 0 11-4.66 4.681 4.688 4.688 0 014.66-4.682z" data-name="Path 169"/>
    <path d="M9.652 81.899a9.694 9.694 0 109.652 9.694 9.681 9.681 0 00-9.652-9.694zm0 14.4a4.7 4.7 0 114.66-4.7 4.688 4.688 0 01-4.66 4.7z" data-name="Path 170"/>
    <path d="M33.513 42.957a2.5 2.5 0 001.768.728 2.541 2.541 0 001.768-.728 2.5 2.5 0 000-3.536l-5.2-5.2 5.2-5.2a2.50032958 2.50032958 0 00-3.536-3.536l-5.2 5.2-5.2-5.2a2.50032958 2.50032958 0 00-3.536 3.536l5.2 5.2-5.2 5.2a2.5 2.5 0 001.768 4.264 2.541 2.541 0 001.768-.728l5.2-5.2z" data-name="Path 171"/>
    <path d="M75.304 65.527a2.5 2.5 0 00-3.536 0l-5.2 5.2-5.2-5.2a2.50032958 2.50032958 0 10-3.536 3.536l5.2 5.2-5.2 5.2a2.5 2.5 0 001.768 4.264 2.541 2.541 0 001.768-.728l5.2-5.2 5.2 5.2a2.5 2.5 0 001.768.728 2.541 2.541 0 001.768-.728 2.5 2.5 0 000-3.536l-5.2-5.2 5.2-5.2a2.5 2.5 0 000-3.536z" data-name="Path 172"/>
    <path d="M45.723 78.404a2.5 2.5 0 00-3.536 0l-5.2 5.2-5.2-5.2a2.50032958 2.50032958 0 00-3.536 3.536l5.2 5.2-5.2 5.2a2.5 2.5 0 001.768 4.264 2.541 2.541 0 001.768-.728l5.2-5.2 5.2 5.2a2.5 2.5 0 001.768.728 2.541 2.541 0 001.768-.728 2.5 2.5 0 000-3.536l-5.2-5.2 5.2-5.2a2.537 2.537 0 000-3.536z" data-name="Path 173"/>
    <path d="M29.56 59.641a2.5 2.5 0 10-2.5-2.5 2.5 2.5 0 002.5 2.5z" data-name="Path 174"/>
    <path d="M11.067 67.004a2.529 2.529 0 001.373.416 2.5 2.5 0 10-1.373-.416z" data-name="Path 175"/>
    <path d="M18.867 56.332a2.488 2.488 0 001.019 4.764 2.554 2.554 0 001.019-.208 2.483 2.483 0 001.269-3.287 2.513 2.513 0 00-3.307-1.269z" data-name="Path 176"/>
    <circle cx="2.496" cy="2.496" r="2.496" data-name="Ellipse 30" transform="translate(36.945 54.648)"/>
    <path d="M9.652 76.761a2.486 2.486 0 10-1.768-.728 2.52 2.52 0 001.768.728z" data-name="Path 177"/>
    <path d="M77.967 35.406l-9.652-9.652a2.5 2.5 0 00-3.536 0l-9.652 9.652a2.50032958 2.50032958 0 103.536 3.536l5.388-5.388v6.449a14.7 14.7 0 01-14.749 14.624 2.5 2.5 0 100 4.993 19.7 19.7 0 0019.741-19.617v-6.469l5.388 5.388a2.5 2.5 0 001.768.728 2.541 2.541 0 001.768-.728 2.473 2.473 0 000-3.516z" data-name="Path 178"/>
  </g>
</svg>
