<?xml version="1.0" encoding="UTF-8"?>
<!DOCTYPE svg PUBLIC "-//W3C//DTD SVG 1.1//EN" "http://www.w3.org/Graphics/SVG/1.1/DTD/svg11.dtd">
<!-- Creator: CorelDRAW -->
<svg xmlns="http://www.w3.org/2000/svg" xml:space="preserve" width="0.731287in" height="0.728409in" version="1.1" style="shape-rendering:geometricPrecision; text-rendering:geometricPrecision; image-rendering:optimizeQuality; fill-rule:evenodd; clip-rule:evenodd"
viewBox="0 0 726.49 723.63"
 xmlns:xlink="http://www.w3.org/1999/xlink"
 xmlns:xodm="http://www.corel.com/coreldraw/odm/2003">
 <defs>
  <style type="text/css">
   <![CDATA[
    .fil1 {fill:url(#id0)}
    .fil0 {fill:url(#id1)}
   ]]>
  </style>
  <linearGradient id="id0" gradientUnits="userSpaceOnUse" x1="247.7" y1="422.38" x2="632.13" y2="207.18">
   <stop offset="0" style="stop-opacity:1; stop-color:#3E4095"/>
   <stop offset="1" style="stop-opacity:1; stop-color:#4DC8F4"/>
  </linearGradient>
  <linearGradient id="id1" gradientUnits="userSpaceOnUse" x1="642.85" y1="175.29" x2="23.33" y2="545.46">
   <stop offset="0" style="stop-opacity:1; stop-color:#91D8F7"/>
   <stop offset="0.34902" style="stop-opacity:1; stop-color:#00AFEF"/>
   <stop offset="1" style="stop-opacity:1; stop-color:#3E4095"/>
  </linearGradient>
 </defs>
 <g id="Layer_x0020_1">
  <metadata id="CorelCorpID_0Corel-Layer"/>
  <g id="_1862756941056">
   <path class="fil0" d="M552.54 245.41c30.69,-17.88 48.65,-42.33 58.07,-70.19 10.63,-31.47 8.83,-68.56 -11.11,-102.81l-42.17 -72.42 -449.91 262.06c-46.32,26.82 -77.11,66.48 -93.94,111.47 -20.23,54.1 -19.8,121.8 15.92,183.07 26.9,46.13 70.05,79.97 117.37,95.62 56.71,18.76 120.46,14.85 179.04,-19.28l143.6 -83.66c48.26,-28.11 106.4,-12.16 138.57,28.92 26.56,33.91 35.85,98.42 -14.79,145.43 125.15,-54.76 167.32,-189.86 104.44,-307.3 -32.54,-60.78 -108.61,-101.92 -176.89,-103.06 -39.25,-0.65 -76.87,7.6 -111.94,28.65l-46.58 27.14c-28.7,15.84 -45.7,40.05 -54.01,63.5 -12.35,34.88 -11.51,66.84 10.94,107.49l-9.53 5.55c-10.32,-21.35 -40.59,-55.36 -86.66,-62.5 -37.93,-7.17 -68.43,6.95 -85.6,16.95l-5.53 -9.5c28.24,-15.54 49.95,-42.76 58.13,-69.75 7.74,-25.55 10.65,-69.65 -12.72,-102.4l9.6 -5.6c16.33,30.53 40.97,48.79 68.5,57.88 32.08,10.6 68.2,8.15 101.51,-11.22l195.68 -114.05z"/>
   <path class="fil1" d="M593.19 723.63c125.15,-54.76 167.32,-189.86 104.45,-307.3 -32.54,-60.78 -108.61,-101.92 -176.89,-103.06 -39.25,-0.65 -76.87,7.6 -111.94,28.65l-46.58 27.14c-28.7,15.84 -45.69,40.05 -54,63.5 -12.35,34.88 -11.51,66.84 10.93,107.49l-4.76 2.77 121.64 -70.19c4.26,-2.71 9.05,-5.42 13.61,-7.68 19.77,-9.82 42.07,-15.35 65.65,-15.35 81.63,0 147.8,66.17 147.8,147.8 0,65.83 -23.76,90.43 -69.9,126.22zm-40.65 -478.22c30.69,-17.88 48.66,-42.33 58.07,-70.19 10.63,-31.46 8.83,-68.54 -11.1,-102.78l-412.66 240.36c16.33,30.53 40.97,48.79 68.5,57.88 32.08,10.6 68.21,8.15 101.51,-11.23l195.68 -114.05z"/>
  </g>
 </g>
</svg>
