<?xml version="1.0" standalone="no"?>
<!DOCTYPE svg PUBLIC "-//W3C//DTD SVG 20010904//EN"
 "http://www.w3.org/TR/2001/REC-SVG-20010904/DTD/svg10.dtd">
<svg version="1.0" xmlns="http://www.w3.org/2000/svg"
 width="700.000000pt" height="700.000000pt" viewBox="0 0 700.000000 700.000000"
 preserveAspectRatio="xMidYMid meet">
<metadata>
Created by potrace 1.14, written by Peter Selinger 2001-2017
</metadata>
<g transform="translate(0.000000,700.000000) scale(0.100000,-0.100000)"
fill="#000000" stroke="none">
<path d="M5230 6919 c-74 -43 -140 -83 -147 -89 -7 -5 -14 -10 -17 -10 -3 0
-92 -51 -198 -114 -106 -62 -236 -138 -288 -168 -151 -87 -374 -217 -390 -227
-17 -11 -480 -282 -546 -321 -186 -108 -326 -189 -719 -420 -247 -144 -463
-271 -480 -280 -16 -10 -82 -48 -145 -85 -124 -73 -626 -367 -675 -395 -16
-10 -131 -76 -253 -149 -123 -72 -225 -131 -227 -131 -6 0 -250 -153 -285
-179 -396 -292 -667 -689 -789 -1156 -6 -22 -11 -43 -11 -47 -1 -4 -6 -22 -11
-40 -10 -36 -25 -122 -37 -215 -9 -75 -8 -378 1 -467 99 -893 800 -1647 1677
-1806 285 -52 610 -44 865 20 22 6 49 13 59 15 152 35 397 145 617 275 57 34
133 79 169 100 36 21 103 60 150 88 538 318 1048 609 1106 632 333 133 694 81
995 -141 417 -308 536 -886 276 -1345 -37 -66 -97 -145 -156 -208 l-56 -58 40
18 c256 118 472 268 663 462 515 522 700 1248 507 1986 -50 192 -164 458 -260
607 -293 456 -847 799 -1425 883 -105 15 -469 16 -550 1 -19 -3 -62 -11 -95
-16 -95 -16 -275 -66 -361 -100 -148 -59 -193 -84 -717 -392 -66 -38 -151 -95
-190 -126 -211 -168 -349 -402 -412 -697 -30 -140 -26 -354 10 -484 30 -108
43 -142 106 -279 22 -46 37 -86 34 -89 -3 -3 -22 -15 -42 -28 l-37 -22 -34 56
c-171 283 -484 500 -792 547 -286 43 -475 16 -727 -107 -57 -27 -108 -46 -113
-43 -6 4 -19 23 -29 43 l-19 38 34 22 c18 12 36 22 39 22 11 0 143 110 198
164 143 144 274 370 303 526 3 14 7 33 10 43 6 20 12 59 22 157 25 224 -31
506 -130 665 -13 22 -27 45 -31 51 -8 14 72 69 82 57 4 -4 34 -48 67 -98 274
-416 796 -603 1293 -464 41 12 82 24 90 29 9 4 51 24 94 44 70 33 884 502 949
547 15 11 30 19 33 19 3 0 24 11 46 26 22 14 55 33 72 43 67 37 864 505 912
534 495 305 711 898 522 1437 -16 47 -40 107 -54 134 -21 42 -350 612 -404
701 -11 17 -23 40 -28 52 -5 11 -13 23 -18 26 -4 2 -69 -31 -143 -74z"/>
</g>
</svg>
