<?xml version="1.0" encoding="UTF-8"?>
<!DOCTYPE svg PUBLIC "-//W3C//DTD SVG 1.1//EN" "http://www.w3.org/Graphics/SVG/1.1/DTD/svg11.dtd">
<!-- Creator: CorelDRAW -->
<svg xmlns="http://www.w3.org/2000/svg" xml:space="preserve" width="2.49339in" height="0.866898in" version="1.1" style="shape-rendering:geometricPrecision; text-rendering:geometricPrecision; image-rendering:optimizeQuality; fill-rule:evenodd; clip-rule:evenodd"
viewBox="0 0 2492.98 866.75"
 xmlns:xlink="http://www.w3.org/1999/xlink"
 xmlns:xodm="http://www.corel.com/coreldraw/odm/2003">
 <defs>
  <style type="text/css">
   <![CDATA[
    .fil0 {fill:#373435}
    .fil1 {fill:#373435;fill-rule:nonzero}
    .fil3 {fill:url(#id0)}
    .fil2 {fill:url(#id1)}
   ]]>
  </style>
  <linearGradient id="id0" gradientUnits="userSpaceOnUse" x1="1919.49" y1="505.92" x2="2379.95" y2="248.16">
   <stop offset="0" style="stop-opacity:1; stop-color:#3E4095"/>
   <stop offset="1" style="stop-opacity:1; stop-color:#4DC8F4"/>
  </linearGradient>
  <linearGradient id="id1" gradientUnits="userSpaceOnUse" x1="2392.8" y1="209.96" x2="1650.74" y2="653.34">
   <stop offset="0" style="stop-opacity:1; stop-color:#91D8F7"/>
   <stop offset="0.34902" style="stop-opacity:1; stop-color:#00AFEF"/>
   <stop offset="1" style="stop-opacity:1; stop-color:#3E4095"/>
  </linearGradient>
 </defs>
 <g id="Layer_x0020_1">
  <metadata id="CorelCorpID_0Corel-Layer"/>
  <g id="_1862756939520">
   <g>
    <path class="fil0" d="M1318.76 572.58c0.24,9.18 9.25,16.77 21.54,16.77l35.24 0c6.03,0 11.92,-2.07 15.9,-5.58 3.62,-3.18 5.65,-7.65 5.65,-11.4l0 -11.57 0 -73.69 0 -23.91 0 -58.64 75.46 0 0 166.67c0,13.17 -8.01,24.7 -18.53,31.97 -10.29,7.11 -23.06,10.16 -33.12,10.16l-84.86 0 -41.42 -0.1c-4.53,-0.01 -9.12,-0.61 -13.48,-1.65 -4.89,1.19 -9.7,1.75 -13.99,1.75l-84.86 0 -41.42 -0.1c-4.53,-0.01 -9.11,-0.61 -13.48,-1.65 -4.89,1.19 -9.7,1.75 -13.99,1.75l-131.06 0 -41.42 -0.1c-6.02,-0.01 -12.1,-1.06 -17.69,-2.81 -14.94,1.87 -35.05,2.81 -60.29,2.81l-55.33 0 -75.46 0 -55.33 0c-25.19,0 -45.27,-0.93 -60.21,-2.79 -6.28,2 -12.6,2.9 -18.11,2.9l-129.32 0 -41.42 -0.1c-4.55,-0.01 -9.12,-0.61 -13.49,-1.65 -4.88,1.2 -9.68,1.75 -13.99,1.75l-173.05 0 -41.42 -0.1c-6.03,-0.01 -12.1,-1.06 -17.69,-2.82 -14.95,1.87 -35.03,2.81 -60.27,2.81l-107.86 0 0 -22.75 107.86 0c10.64,0 17.86,-0.69 21.55,-2.24 3.44,-1.44 5.13,-4.1 5.13,-7.8l-0.02 -135.23c0,-4.81 -2.56,-8.95 -5.86,-11.76 -4.03,-3.42 -9.93,-5.4 -15.69,-5.4l-112.97 0 0 -23.89 158.26 0.01c13.36,0 29.05,5.26 39.22,14.84 7.66,7.22 12.51,16.64 12.51,27.87l0 16.3 0 58.64 0 23.91 0 27.44c0.61,8.89 9.49,16.16 21.51,16.16l123.42 0c6.03,0 11.92,-2.07 15.9,-5.58 3.62,-3.18 5.65,-7.65 5.65,-11.4l0 -1.15 0 -10.43 0 -73.69 0 -23.91 0 -58.64 75.46 0 0 58.64 0 23.91 0 84.12 -0.03 1.35c0.24,9.18 9.25,16.77 21.54,16.77l79.69 0c6.03,0 11.92,-2.07 15.9,-5.58 3.45,-3.03 5.46,-7.24 5.63,-10.86l0 -64.19 0.02 0 0 -21.6 0 -23.91 0 -58.64 35.49 0 0 -0.37 121.96 -0.01 0 -0 26.79 0 48.66 -0 0 0.01 105.73 0.01c13.36,0 29.05,5.26 39.23,14.84 7.66,7.22 12.51,16.65 12.51,27.87l0 41.48 0.01 0 -0.01 35.92 0 48.66c0.48,9 9.4,16.39 21.52,16.39l81.44 0c6.03,0 11.92,-2.07 15.9,-5.58 3.62,-3.18 5.65,-7.65 5.65,-11.4l0 -1.15 0 -10.43 0 -156.24 75.46 0 0 58.64 0 23.91 0 84.12 -0.03 1.35c0.24,9.18 9.24,16.77 21.54,16.77l35.24 0c6.03,0 11.92,-2.07 15.9,-5.58 3.62,-3.18 5.65,-7.65 5.65,-11.4l0 -1.15 0 -10.43 0 -73.69 0 -23.91 0 -58.64 75.46 0 0 58.64 0 23.91 0 84.12 -0.03 1.35zm-1028.36 -265.97l45.13 45.13 -45.13 45.13 -45.14 -45.13 45.14 -45.13zm359.73 265.36l0 8.5c0,3.7 1.68,6.36 5.13,7.8 3.69,1.55 10.91,2.24 21.55,2.24l55.33 0 0 -162.43 -82 -0 0 80.64 0 62.52 -0.01 0.73zm239.46 -126.73c0,-4.81 -2.56,-8.95 -5.87,-11.76 -4.03,-3.42 -9.93,-5.4 -15.69,-5.4l-60.44 0 0 162.43 55.33 0c10.64,0 17.86,-0.69 21.55,-2.24 3.44,-1.44 5.13,-4.1 5.13,-7.8l-0.01 -135.23z"/>
    <path class="fil1" d="M79.38 818.59l37.68 0c8.16,0 11.84,4.07 11.84,12.04 0,15.34 -15.15,25.44 -41.56,25.44l-14.57 0c-25.24,0 -62.1,-14.95 -62.1,-42.53l0 -34.95 -10.68 0 0 35.15c0,33.4 40.35,53.01 72.2,53.01l15.15 0c32.04,0 52.04,-14.96 52.04,-36.9 0,-4.27 -1.17,-8.55 -3.88,-11.08 62.72,0 159.87,0 222.6,0 17.09,0 29.32,-10.48 29.32,-28.35l0 -31.27 -10.48 0 0 31.65c0,11.06 -7.77,17.09 -18.84,17.09 -80.97,0 -196.38,0 -277.36,0l-1.37 10.68zm297.75 27.18l-48.54 0 0 10.68 48.54 0 0 -10.68zm46.41 -27l10.69 0 0 -114.94 -10.69 0 0 114.94zm83.7 -4.65l0 -54.96 -10.48 0 0 54.96c0,26.21 -14.96,41.94 -39.81,41.94l-12.43 0 1.17 10.68 12.04 0c28.36,0 49.52,-19.23 49.52,-52.63zm23.11 4.65l10.68 0 0 -114.94 -10.68 0 0 114.94zm74.57 -87.77l38.26 43.11c6.31,7.1 8.94,13.01 8.94,18.25 0,9.13 -7.78,15.54 -21.17,15.54l-58.84 0 1.17 10.87 57.68 0c20.58,0 31.65,-10.68 31.65,-26.8 0,-7.18 -3.07,-15.18 -11.07,-24.27l-39.03 -44.28 -7.58 7.57zm147.92 9.52l72.36 0 0 -10.68 -72.36 0 0 10.68zm134.69 67.38c-12.04,0 -18.65,-6.02 -18.65,-17.28l0 -31.46 -10.68 0 0 31.85c0,10.29 -7.58,16.89 -20.2,16.89l-93.91 0c-16.89,0 -23.5,-9.12 -23.5,-22.91l0 -25.83 -10.68 0 0 27.38c0,18.24 9.9,32.23 33.2,32.23l94.89 0c11.46,0 20.58,-4.27 25.24,-12.81 3.5,8.55 11.85,12.81 24.08,12.81 36.06,0 26.01,0 62.07,0 17.08,0 29.32,-10.48 29.32,-28.35l0 -31.27 -10.68 0 0 31.65c0,11.07 -7.58,17.09 -18.64,17.09 -35.99,0 -25.88,0 -61.87,0zm66.34 37.87l-48.74 0 0 10.68 48.74 0 0 -10.68zm45.64 10.29l-5.64 0 1.17 10.68 5.24 0c28.36,0 49.32,-19.23 49.52,-52.04l0 -4.28c2.32,4.04 8.34,8.35 13.2,8.35l5.43 0c32.44,0 64.87,0 97.3,0 17.08,0 29.31,-10.48 29.31,-28.35l0 -31.27 -10.48 0 0 31.65c0,11.07 -7.77,17.09 -18.83,17.09 -32.44,0 -64.87,0 -97.3,0 -11.84,0 -18.63,-6.6 -18.63,-16.89l0 -31.85 -10.49 0 0 54.96c0,26.22 -14.95,41.94 -39.8,41.94zm185.26 -10.29l-48.54 0 0 10.68 48.54 0 0 -10.68zm87.39 -37.87l-47.96 0 1.16 10.87 46.8 0c12.04,0 19.81,-4.27 24.47,-13.59 4.47,9.32 12.23,13.59 23.89,13.59 22.01,0 44.02,0 66.02,0 12.43,0 19.23,-4.27 22.91,-13.98 5.05,9.33 14.56,13.98 28.16,13.98 21.36,0 34.57,-13.2 34.57,-36.31 0,-24.66 -12.24,-37.87 -34.38,-37.87 -22.13,0 -34.76,14.77 -34.76,39.43l0 9.32c0,9.52 -5.83,14.56 -16.51,14.56 -21.95,0 -43.89,0 -65.84,0 -10.48,0 -15.54,-5.24 -20.19,-18.44l-23.1 -65.84 -9.72 4.47c17.87,49.13 22.33,60.78 22.33,67.19 0,6.99 -6.99,12.62 -17.86,12.62zm189.34 -25.44c0,17.09 -8.35,25.44 -23.88,25.44 -14.96,0 -24.08,-9.31 -24.08,-23.88 0,-19.62 7.57,-28.94 24.08,-28.94 16.3,0 23.88,9.32 23.88,27.38z"/>
   </g>
   <g>
    <path class="fil2" d="M2284.62 293.95c36.76,-21.42 58.28,-50.71 69.56,-84.07 12.74,-37.69 10.57,-82.12 -13.31,-123.14l-50.51 -86.74 -538.89 313.89c-55.48,32.13 -92.36,79.62 -112.52,133.52 -24.24,64.79 -23.71,145.89 19.07,219.27 32.22,55.26 83.9,95.79 140.59,114.54 67.93,22.47 144.28,17.79 214.46,-23.09l172 -100.2c57.81,-33.67 127.44,-14.57 165.98,34.64 31.81,40.62 42.94,117.89 -17.71,174.19 149.9,-65.59 200.41,-227.41 125.11,-368.08 -38.98,-72.8 -130.1,-122.07 -211.87,-123.44 -47.01,-0.78 -92.08,9.1 -134.08,34.32l-55.8 32.51c-34.37,18.97 -54.73,47.97 -64.68,76.06 -14.79,41.78 -13.79,80.06 13.1,128.76l-11.41 6.65c-12.36,-25.57 -48.61,-66.31 -103.8,-74.87 -45.43,-8.59 -81.97,8.33 -102.53,20.3l-6.63 -11.38c33.83,-18.61 59.84,-51.22 69.63,-83.55 9.27,-30.6 12.75,-83.42 -15.24,-122.66l11.51 -6.7c19.56,36.57 49.07,58.44 82.05,69.33 38.42,12.69 81.69,9.77 121.58,-13.44l234.38 -136.61z"/>
    <path class="fil3" d="M2333.31 866.76c149.91,-65.59 200.42,-227.41 125.11,-368.08 -38.98,-72.81 -130.1,-122.08 -211.87,-123.44 -47.01,-0.78 -92.08,9.1 -134.08,34.32l-55.79 32.51c-34.38,18.97 -54.73,47.97 -64.69,76.06 -14.79,41.78 -13.79,80.06 13.1,128.76l-5.7 3.32 145.7 -84.07c5.1,-3.24 10.84,-6.49 16.3,-9.2 23.69,-11.77 50.39,-18.39 78.63,-18.39 97.77,0 177.03,79.26 177.03,177.03 0,78.86 -28.47,108.32 -83.73,151.18zm-48.69 -572.81c36.76,-21.41 58.28,-50.7 69.55,-84.07 12.74,-37.68 10.58,-82.1 -13.29,-123.11l-494.28 287.9c19.56,36.57 49.07,58.44 82.05,69.33 38.42,12.69 81.69,9.77 121.58,-13.44l234.38 -136.61z"/>
   </g>
  </g>
 </g>
</svg>
